<svg width="16" height="12" viewBox="0 0 16 12" fill="none" xmlns="http://www.w3.org/2000/svg"><path d="M15.6906 1.80381L14.2852 0.469963C14.0956 0.290118 13.8588 0.200195 13.5903 0.200195C13.3218 0.200195 13.085 0.290118 12.8954 0.469963L6.13644 6.88443L3.12015 4.00691C2.93064 3.82707 2.69376 3.73715 2.4253 3.73715C2.15683 3.73715 1.91995 3.82707 1.73045 4.00691L0.324952 5.34076C0.119655 5.52061 0.0249023 5.74541 0.0249023 6.0002C0.0249023 6.25498 0.119655 6.47978 0.30916 6.65963L4.03609 10.1966L5.44159 11.5304C5.63109 11.7103 5.86797 11.8002 6.13644 11.8002C6.4049 11.8002 6.64178 11.7103 6.83129 11.5304L8.23678 10.1966L15.6906 3.12268C15.8801 2.94283 15.9749 2.71802 15.9749 2.46324C15.9749 2.20846 15.8801 1.98366 15.6906 1.80381Z" fill="#6480D0"/></svg>
