<svg width="202" height="194" viewBox="0 0 202 194" fill="none" xmlns="http://www.w3.org/2000/svg">
<g clip-path="url(#clip0_26_821)">
<path d="M12.222 86.7748C11.7344 86.651 11.4052 86.8506 11.105 87.2841L7.86566 94.4474C7.6947 94.9703 7.85302 95.2937 8.24055 95.562C8.72812 95.6858 9.05739 95.4862 9.35752 95.0526L12.2258 88.7014L18.1641 90.8885C18.6517 91.0123 18.9809 90.8127 19.2811 90.3792C19.452 89.8562 19.2937 89.5329 18.9062 89.2646L12.222 86.7748ZM200.708 89.4303C193.864 99.8693 180.454 117.307 162.264 131.436C144.075 145.564 121.077 156.15 95.0852 153.12L94.7015 154.778C121.081 158.077 144.508 147.147 163.027 132.819C181.545 118.49 195.155 100.764 202 90.3246L200.708 89.4303ZM94.9851 153.264C42.8718 147.114 18.3328 103.618 12.6387 87.277L11.1924 87.9859C17.0449 104.65 41.7713 148.703 94.7306 155.012L94.9851 153.264Z" fill="#EFEFEF"/>
</g>
<defs>
<clipPath id="clip0_26_821">
<rect width="125.669" height="158.683" fill="white" transform="translate(202 90.3242) rotate(124.695)"/>
</clipPath>
</defs>
</svg>
