<svg width="52" height="52" viewBox="0 0 52 52" fill="none" xmlns="http://www.w3.org/2000/svg">
<path fill-rule="evenodd" clip-rule="evenodd" d="M24.4974 0H27.958C39.7968 1 49.4501 9.81818 51.6357 21.4545C51.8179 22.3636 51.9089 23.4545 52 24.3636V27.4545C52 27.5455 51.9089 27.7273 51.9089 27.8182C51.0893 39.7273 42.2557 49.4545 30.5079 51.4545L27.5026 52H24.3152C23.6778 51.8182 23.0403 51.8182 22.4939 51.6364C19.3065 51.1818 16.2102 50.2727 13.387 48.7273C13.1138 48.5455 12.8406 48.5455 12.5674 48.5455C11.2925 48.9091 10.1086 49.4545 8.83362 49.8182C6.64799 50.5455 4.55342 51.2727 2.36778 52H1.63923C0.910683 51.7273 0.273205 51.0909 0 50.3636V49.4545H0.0910683C1.18389 46 2.27671 42.7273 3.27846 39.4545C3.36953 39.0909 3.36953 38.7273 3.18739 38.3636C1.7303 35.8182 0.819615 33.0909 0.364273 30.1818C0.273205 29.2727 0.0910683 28.3636 0 27.6364V24.3636C0 24.1818 0.0910683 24.1818 0.0910683 24C0.273205 20.4545 1.27496 16.9091 3.00525 13.8182C6.73905 6.72727 13.5692 1.72727 21.4921 0.363636C22.4939 0.181818 23.4956 0 24.4974 0ZM5.19089 46.7273C5.37303 46.7273 5.55517 46.6364 5.7373 46.5455C7.74081 46 9.74431 45.4545 11.6567 44.7273C12.9317 44.1818 14.2977 44.3636 15.3905 45.0909C25.1349 50.6364 37.4291 47.8182 43.8039 38.7273C47.5377 33.8182 48.9037 27.4545 47.5377 21.4545C46.4448 16.0909 43.3485 11.3636 38.8862 8.18182C33.9685 4.36364 27.5937 3.09091 21.5832 4.54545C14.9352 5.81818 9.38004 10.1818 6.37478 16.1818C3.00525 22.9091 3.36953 30.9091 7.28546 37.2727C7.74081 38 7.83187 38.8182 7.55867 39.6364C7.01226 41.0909 6.55692 42.5455 6.10158 44.1818C5.7373 44.9091 5.4641 45.8182 5.19089 46.7273ZM18.3958 26C18.3958 27.3636 17.2119 28.5455 15.8459 28.5455C14.4799 28.4545 13.387 27.3636 13.296 26C13.2049 24.6364 14.2067 23.3636 15.6637 23.2727C17.0298 23.1818 18.3047 24.1818 18.3958 25.6364C18.3958 25.7273 18.3958 25.8182 18.3958 26ZM28.5954 26C28.5044 27.3636 27.4116 28.4545 26.0455 28.5455C24.6795 28.4545 23.6778 27.3636 23.5867 26C23.5867 24.6364 24.6795 23.4545 26.1366 23.4545C27.4116 23.4545 28.5954 24.5455 28.5954 26C28.5954 25.9091 28.5954 26 28.5954 26ZM38.704 26C38.7951 27.3636 37.7933 28.6364 36.3363 28.7273C34.9702 28.8182 33.6953 27.8182 33.6042 26.3636C33.6042 26.1818 33.6042 26.0909 33.6042 25.9091C33.6042 24.5455 34.697 23.3636 36.063 23.3636H36.1541C37.6112 23.4545 38.704 24.6364 38.704 26Z" fill="white"/>
</svg>
