<svg width="57" height="57" viewBox="0 0 57 57" fill="none" xmlns="http://www.w3.org/2000/svg">
<path fill-rule="evenodd" clip-rule="evenodd" d="M17.5927 0C18.789 0.140567 19.9853 0.281134 21.1112 0.491985C23.7149 0.843403 26.2483 1.82737 28.5001 3.30333C29.1334 3.72503 29.7668 4.2873 30.2594 4.91985C32.0186 6.95808 32.0186 9.90999 30.2594 11.9482C28.9927 13.4945 27.3038 14.619 25.4742 15.2515C22.026 16.5166 18.2964 17.0789 14.6372 16.8681C11.6816 16.7978 8.72604 16.2355 5.91123 15.1813C4.43345 14.619 3.09641 13.7756 1.97049 12.7213C-0.351736 10.6831 -0.562847 7.09864 1.47789 4.77928C1.61863 4.56843 1.82975 4.42787 2.04086 4.21702C3.65937 2.74106 5.55937 1.75709 7.67049 1.19482C9.57049 0.632552 11.5409 0.281134 13.5112 0.140567C13.652 0.140567 13.8631 0.0702836 14.0038 0.0702836L17.5927 0ZM15.7631 12.4402C18.0149 12.4402 20.2668 12.1591 22.4483 11.5265C23.9964 11.1751 25.4038 10.4723 26.6001 9.418C27.1631 9.13687 27.3742 8.43403 27.0223 7.87176C26.8816 7.66091 26.7409 7.52035 26.5297 7.37978C25.6853 6.67694 24.7705 6.18496 23.7853 5.76326C18.789 4.00617 13.3001 3.93588 8.30382 5.62269C7.10752 5.97411 5.9816 6.60666 5.06678 7.45006C4.50382 7.80148 4.36308 8.50432 4.64456 9.06658C4.71493 9.20715 4.85567 9.34772 5.06678 9.48829C5.62975 9.98027 6.26308 10.402 6.96678 10.7534C9.71123 11.8779 12.7372 12.5105 15.7631 12.4402ZM39.1964 57C38.2112 56.8594 37.226 56.7892 36.2409 56.6486C32.9334 56.2269 29.6964 55.3132 26.7409 53.767C25.826 53.3453 25.3335 52.4316 25.4742 51.4476C25.6149 50.4636 26.389 49.6905 27.3038 49.5499C27.7964 49.4797 28.289 49.5499 28.7112 49.7608C33.2853 51.9396 38.4223 52.8533 43.489 52.3613C47.0779 52.2207 50.5964 51.307 53.8334 49.6905C54.889 49.1282 56.1557 49.4797 56.7186 50.5339C56.7186 50.6042 56.789 50.6042 56.789 50.6745C57.352 51.7287 56.9297 53.0641 55.8742 53.6264C55.8742 53.6264 55.8038 53.6264 55.8038 53.6967C53.2705 55.0321 50.5964 55.8755 47.7816 56.3674C46.4446 56.5783 45.1075 56.7189 43.8409 56.8594C43.7001 56.8594 43.5594 56.9297 43.4186 56.9297L39.1964 57ZM0.000115737 31.8385C0.000115737 31.7682 0.0704861 31.6276 0.0704861 31.5573C0.281597 30.2922 1.40752 29.5191 2.60382 29.6597C2.8853 29.73 3.09641 29.8002 3.37789 29.9408C5.41863 30.9951 7.60012 31.6979 9.92234 32.1196C13.1594 32.6819 16.5372 32.8224 19.8446 32.471C20.3372 32.4007 20.8297 32.4007 21.252 32.5413C22.2372 32.8224 22.8705 33.8064 22.8001 34.7904C22.8001 35.7744 22.026 36.6178 21.0409 36.7583C14.989 37.6017 8.86678 36.8989 3.16678 34.7904C2.81493 34.6498 2.39271 34.439 2.04086 34.2984C0.914931 33.947 0.140856 33.0333 0.000115737 31.9088V31.8385ZM0.000115737 41.9593C0.000115737 41.8187 0.0704861 41.7485 0.0704861 41.6079C0.281597 40.4131 1.40752 39.6399 2.53345 39.7805C2.81493 39.8508 3.02604 39.9211 3.23715 40.0617C5.27789 41.1159 7.45937 41.8187 9.7816 42.2404C12.7372 42.8027 15.7631 42.9433 18.7186 42.5919C19.9149 42.3107 21.1816 43.0136 21.4631 44.2084C21.7446 45.4032 21.0409 46.6683 19.8446 46.9494C19.6334 47.0197 19.4223 47.0197 19.2112 47.0197C13.9334 47.582 8.5853 46.8792 3.589 45.0518C3.02604 44.8409 2.46308 44.5598 1.82975 44.2787C0.77419 43.9975 0.000115737 43.0838 -0.140625 42.0296V41.9593H0.000115737ZM0.000115737 21.5771C0.0704861 21.3662 0.0704861 21.1554 0.140856 21.0148C0.492708 19.8903 1.689 19.1874 2.8853 19.5388C3.02604 19.6091 3.16678 19.6091 3.30752 19.7497C5.489 20.8742 7.8816 21.5771 10.2742 21.9988C13.089 22.4908 15.9742 22.561 18.8594 22.3502C20.0557 22.0691 21.252 22.8422 21.5334 24.037C21.6038 24.3884 21.6038 24.8101 21.4631 25.2318C21.252 26.0752 20.4779 26.7078 19.5631 26.7781C13.5816 27.4809 7.52975 26.5672 2.04086 24.1073C1.61863 23.8964 1.19641 23.6856 0.84456 23.4747C0.351968 23.053 0.000115737 22.4205 0.000115737 21.7879V21.5771ZM40.252 36.7583C37.0149 36.7583 33.7779 36.0555 30.8223 34.7904C29.7668 34.3687 28.7816 33.7361 27.9372 33.0333C25.3335 31.2059 24.6297 27.6215 26.4594 25.021C26.8816 24.3884 27.4446 23.8964 28.0075 23.4747C29.9779 21.9988 32.3001 20.9445 34.7631 20.5228C39.9001 19.3983 45.3186 19.6794 50.3149 21.3662C52.0742 21.9285 53.6927 22.9125 55.0297 24.1776C57.352 26.2158 57.4927 29.8002 55.452 32.1196C55.3112 32.2602 55.1705 32.4007 55.0297 32.5413C53.2705 34.2281 51.0186 35.3527 48.626 35.8446C45.952 36.4772 43.0668 36.8286 40.252 36.7583ZM41.1668 32.3305C44.1927 32.4007 47.2186 31.8385 49.9631 30.5734C50.6668 30.222 51.3001 29.8002 51.8631 29.3083C52.426 29.0271 52.6371 28.254 52.3557 27.6917C52.2149 27.4809 52.0742 27.3403 51.8631 27.1998C51.4409 26.8483 51.0186 26.4969 50.5964 26.2861C48.9779 25.3724 47.1483 24.8101 45.2483 24.5993C41.3779 23.9667 37.4372 24.2478 33.7075 25.4427C32.4409 25.7941 31.2446 26.4969 30.2594 27.4106C29.7668 27.762 29.626 28.3946 29.9779 28.8866C30.0483 29.0271 30.189 29.0974 30.2594 29.1677C30.8927 29.73 31.5964 30.222 32.3001 30.5734C35.1149 31.8385 38.1409 32.4007 41.1668 32.3305ZM40.8853 46.7386C36.2409 46.8089 31.6668 45.8249 27.4446 43.9273C27.1631 43.7867 26.8112 43.6461 26.5297 43.5056C25.4742 42.9433 25.052 41.6079 25.6149 40.5536C26.1779 39.4994 27.4446 39.0074 28.5705 39.5697C30.3297 40.4834 32.2297 41.1862 34.2001 41.6079C40.4631 43.0839 47.0075 42.5216 52.9186 39.9914C53.2001 39.8508 53.4816 39.7102 53.8334 39.5697C54.9594 39.0777 56.226 39.5697 56.789 40.6942C57.2816 41.7485 56.8594 43.0136 55.8742 43.5758C55.3112 43.857 54.8186 44.1381 54.2557 44.349C49.9631 46.0358 45.4594 46.8792 40.8853 46.7386ZM16.1149 56.8594C11.0483 57 5.9816 55.8755 1.40752 53.6967C0.281597 53.2047 -0.281366 51.9396 0.211227 50.815C0.703819 49.6905 1.97049 49.1282 3.09641 49.6202C3.16678 49.6905 3.23715 49.6905 3.37789 49.7608C5.34826 50.7448 7.45937 51.4476 9.64086 51.8693C12.7372 52.5019 15.8334 52.6424 18.9297 52.291C19.7742 52.1504 20.689 52.5019 21.1816 53.2047C21.6742 53.8372 21.7446 54.7509 21.3927 55.4538C21.1112 56.1566 20.4075 56.6486 19.6334 56.7189C18.2964 56.7189 16.9594 56.7892 16.1149 56.8594Z" fill="white"/>
</svg>
