<svg width="17" height="21" viewBox="0 0 17 21" fill="none" xmlns="http://www.w3.org/2000/svg">
<path d="M17 9.83907C16.713 11.8216 15.8523 13.5104 14.4894 14.9055C13.7004 15.6398 12.9831 16.4475 12.1941 17.1817C11.0464 18.43 9.89869 19.7517 8.75101 20.9999C6.3122 18.43 3.94511 16.2272 1.72148 13.8041C0.430339 12.3356 -0.0717708 10.4265 -4.0818e-05 8.44396C0.0716891 4.18522 3.29954 0.513894 7.31642 0.073335C11.8354 -0.440651 15.7088 2.2027 16.8565 6.53487C17.1434 7.41599 17 9.69221 17 9.83907ZM8.53582 11.6013C10.0422 11.6013 11.3333 10.3531 11.3333 8.8111C11.3333 7.26914 10.0422 5.94746 8.60756 5.94746C7.17296 5.94746 5.81009 7.26914 5.81009 8.73767C5.81009 10.2796 7.0295 11.6013 8.53582 11.6013Z" fill="#6480D0"/>
</svg>
