<svg width="26" height="15" viewBox="0 0 26 15" fill="none" xmlns="http://www.w3.org/2000/svg">
<g clip-path="url(#clip0_32_1687)">
<path d="M11.713 10.4787V9.02323L10.3197 9.20129V10.4787H9.77657V11.6787H10.3197V14.9535H11.713V11.6787H12.7206V10.4787H11.713ZM4.11686 12.631C4.54193 12.2981 4.80957 11.8335 4.80957 11.2606V11.0129C4.80957 9.99871 3.97517 9.25548 2.94399 9.25548L0 9.24V14.9226L1.39328 14.9303V13.0103H2.82592L3.75477 14.9381H5.3842L4.11686 12.631ZM3.3848 11.191C3.3848 11.5935 3.05419 11.8258 2.64487 11.8258H1.39328V10.4555H2.64487C3.05419 10.4555 3.3848 10.7419 3.3848 11.1445V11.191ZM19.7421 10.4555H19.01V9L17.6482 9.17806V14.9381H19.7421C20.7732 14.9381 21.6076 14.1639 21.6076 13.1497V12.2826C21.6076 11.2761 20.7732 10.4555 19.7421 10.4555ZM20.2695 13.0335C20.2695 13.4594 19.9782 13.7148 19.5453 13.7148H19.01V11.6787H19.5453C19.9782 11.6787 20.2695 11.9342 20.2695 12.36V13.0335ZM15.696 10.4787V13.0645C15.696 13.4903 15.5386 13.7768 15.1057 13.7768H15.082C14.6491 13.7768 14.4917 13.4903 14.4917 13.0645V10.4787H13.122V13.1652C13.122 14.1794 13.5707 15 14.9404 15H15.2001C16.6406 15 17.0657 14.1794 17.0657 13.1652V10.4787H15.696ZM7.95822 10.4787V13.0645C7.95822 13.4903 7.80079 13.7768 7.36785 13.7768H7.34423C6.91129 13.7768 6.75386 13.4903 6.75386 13.0645V10.4787H5.3842V13.1652C5.3842 14.1794 5.83288 15 7.20254 15H7.46231C8.90282 15 9.32788 14.1794 9.32788 13.1652V10.4787H7.95822ZM25.0869 13.4361C25.0869 13.4361 24.6854 13.9239 23.977 13.8697C23.5362 13.8387 23.2764 13.6142 23.2764 13.1884V13.0413H25.9685V12.2748C25.9685 11.2839 25.2286 10.4168 23.977 10.4168C22.7254 10.4168 21.9855 11.2374 21.9855 12.2284V13.1497C21.9855 14.1406 22.7254 15.0077 23.977 15.0077C25.3939 15.0077 26 14.04 26 14.04L25.0869 13.4361ZM23.2764 12.0116C23.2764 11.5935 23.5441 11.3458 23.9455 11.3303H23.977C24.3942 11.3303 24.6776 11.5858 24.6776 12.0116V12.0503H23.2685L23.2764 12.0116Z" fill="white"/>
</g>
<path d="M11.9039 0.132517C11.4062 -0.178768 11 0.0775843 11 0.700154V5.29985C11 5.92242 11.4062 6.17877 11.9072 5.86748L15.6242 3.56031C16.1253 3.24903 16.1253 2.74731 15.6242 2.43603L11.9039 0.132517Z" fill="white"/>
<defs>
<clipPath id="clip0_32_1687">
<rect width="26" height="6" fill="white" transform="translate(0 9)"/>
</clipPath>
</defs>
</svg>
