<svg width="20" height="12" viewBox="0 0 20 12" fill="none" xmlns="http://www.w3.org/2000/svg">
<path d="M16.5811 6.57994C16.2705 6.18701 16.3603 6.01488 16.5811 5.66686C16.5849 5.66312 19.141 2.13055 19.4068 0.933071C19.5378 0.495243 19.4068 0.177162 18.7743 0.177162H16.6784C16.1433 0.177162 15.9 0.454079 15.769 0.760933C15.769 0.760933 14.7024 3.31306 13.1941 4.96708C12.7076 5.44607 12.4831 5.5995 12.2173 5.5995C12.0863 5.5995 11.8843 5.44607 11.8843 5.00824V0.925587C11.8843 0.401689 11.7346 0.169678 11.2929 0.169678H7.99949C7.66641 0.169678 7.46431 0.412916 7.46431 0.641185C7.46431 1.13889 8.2203 1.25115 8.2989 2.65071V5.68183C8.2989 6.34418 8.17913 6.46767 7.90967 6.46767C7.19859 6.46767 5.46953 3.90432 4.44408 0.970492C4.23449 0.401689 4.0324 0.169678 3.49347 0.169678H1.39765C0.798839 0.169678 0.679077 0.446595 0.679077 0.753449C0.679077 1.29606 1.39016 4.00536 3.99123 7.58283C5.72403 10.0227 8.16416 11.3474 10.3835 11.3474C11.7158 11.3474 11.8805 11.0518 11.8805 10.5466C11.8805 8.21525 11.7607 7.99446 12.4269 7.99446C12.7376 7.99446 13.269 8.14789 14.5153 9.32666C15.9374 10.7225 16.1732 11.3474 16.9704 11.3474H19.0662C19.665 11.3474 19.9644 11.0518 19.7922 10.4755C19.3918 9.25556 16.7009 6.74459 16.5811 6.57994Z" fill="white"/>
</svg>
