<svg width="17" height="17" viewBox="0 0 17 17" fill="none" xmlns="http://www.w3.org/2000/svg">
<g clip-path="url(#clip0_32_1662)">
<path d="M0.976196 8.26286C0.976196 8.36746 1.01106 8.43719 1.08079 8.50692C1.15052 8.57665 1.25512 8.61151 1.32485 8.61151C7.84461 8.54178 8.50704 6.44988 8.57677 1.32472C8.57677 1.22013 8.54191 1.11553 8.47218 1.08067C8.40245 1.01094 8.29785 0.976074 8.19326 0.976074H3.97459C2.33593 0.976074 0.976196 2.33581 0.976196 3.97447V8.19313C0.976196 8.19313 0.976196 8.228 0.976196 8.26286C0.976196 8.26286 0.976196 8.228 0.976196 8.26286Z" fill="white"/>
<path d="M1.32485 9.30957C1.22025 9.30957 1.11566 9.34444 1.08079 9.41417C1.01106 9.4839 0.976196 9.58849 0.976196 9.65822V9.69309V9.72795V13.9466C0.976196 15.6201 2.33593 16.945 3.97459 16.945H8.22812C8.29785 16.945 8.40245 16.9101 8.47218 16.8404C8.54191 16.7707 8.57677 16.6661 8.57677 16.5964C8.50704 11.4712 7.84461 9.3793 1.32485 9.30957Z" fill="white"/>
<path d="M16.9444 8.26286C16.9444 8.36746 16.9096 8.43719 16.8399 8.50692C16.7701 8.57665 16.6655 8.61151 16.5958 8.61151C10.076 8.54178 9.37874 6.44988 9.34387 1.32472C9.34387 1.22013 9.37874 1.11553 9.44847 1.08067C9.5182 1.01094 9.62279 0.976074 9.69252 0.976074H13.9112C15.5847 0.976074 16.9096 2.33581 16.9096 3.97447V8.19313C16.9444 8.19313 16.9444 8.228 16.9444 8.26286C16.9444 8.26286 16.9444 8.228 16.9444 8.26286Z" fill="white"/>
<path d="M16.5958 9.30957C16.7004 9.30957 16.805 9.34444 16.8399 9.41417C16.9096 9.4839 16.9096 9.55363 16.9444 9.65822V9.69309V9.72795V13.9466C16.9444 15.6201 15.5847 16.945 13.9461 16.945H9.69252C9.62279 16.945 9.5182 16.9101 9.44847 16.8404C9.37874 16.7707 9.34387 16.6661 9.34387 16.5964C9.37874 11.4712 10.076 9.3793 16.5958 9.30957Z" fill="white"/>
</g>
<defs>
<clipPath id="clip0_32_1662">
<rect width="15.9682" height="15.9682" fill="white" transform="translate(0.976196 0.976074)"/>
</clipPath>
</defs>
</svg>
