<svg width="20" height="14" viewBox="0 0 20 14" fill="none" xmlns="http://www.w3.org/2000/svg">
<g clip-path="url(#clip0_32_1700)">
<path d="M19.5871 2.18897C19.3556 1.33214 18.68 0.65669 17.8229 0.425285C16.259 0 10 0 10 0C10 0 3.741 0 2.17391 0.412776C1.3325 0.644181 0.641226 1.33527 0.409759 2.19209C0 3.75564 0 6.99844 0 6.99844C0 6.99844 0 10.26 0.412887 11.8079C0.644354 12.6647 1.31999 13.3402 2.17704 13.5716C3.75977 14 10.0031 14 10.0031 14C10.0031 14 16.2621 14 17.8292 13.5872C18.6863 13.3558 19.3619 12.6804 19.5934 11.8235C20.0062 10.26 20.0062 7.01407 20.0062 7.01407C20.0062 7.01407 20.0156 3.75564 19.5871 2.18897ZM8.0075 9.99732V4.00268L13.2124 7.00156L8.0075 9.99732Z" fill="white"/>
</g>
<defs>
<clipPath id="clip0_32_1700">
<rect width="20" height="14" fill="white"/>
</clipPath>
</defs>
</svg>
