<svg width="46" height="37" viewBox="0 0 46 37" fill="none" xmlns="http://www.w3.org/2000/svg">
<path fill-rule="evenodd" clip-rule="evenodd" d="M35.5486 37H12.0329C11.8954 37 11.8266 36.9298 11.6891 36.9298C9.07623 36.649 6.6009 35.5256 4.60688 33.7704C2.61285 32.0152 1.16891 29.6983 0.481315 27.1708C0.275037 26.3985 0.137519 25.556 0 24.7135V22.3966C0.0687593 22.2562 0.0687593 22.1158 0.0687593 21.9753C0.343797 19.518 1.23767 17.2713 2.68161 15.3055C4.12556 13.3397 6.11958 11.8653 8.31988 11.0228C8.4574 10.9526 8.59492 10.8824 8.73244 10.7419C8.86996 10.6015 8.93871 10.4611 8.93871 10.3207C9.62631 8.0038 10.9327 5.96774 12.583 4.28273C14.2332 2.59772 16.296 1.33397 18.565 0.702087C19.5964 0.421252 20.6278 0.210626 21.728 0H24.2033C25.0972 0.140417 25.9223 0.280835 26.8161 0.491461C29.704 1.26376 32.3169 2.94877 34.2421 5.26566C36.1674 7.58254 37.4051 10.4611 37.6801 13.4801C37.6801 13.6205 37.7489 13.7609 37.8176 13.8311C37.8864 13.9013 38.0239 13.9715 38.1614 14.0417C39.9492 14.6736 41.5994 15.7268 42.9058 17.1309C44.2123 18.5351 45.1061 20.2903 45.5874 22.186C45.725 22.8178 45.8625 23.4497 46 24.0816V26.1879C45.9312 26.3283 45.9312 26.4687 45.9312 26.6091C45.6562 28.7154 44.8998 30.6812 43.6622 32.296C42.4245 33.981 40.7055 35.2448 38.849 35.9469C37.7489 36.5085 36.6487 36.7894 35.5486 37ZM23.7907 33.63H34.2421C34.7235 33.63 35.136 33.63 35.6173 33.5598C37.0613 33.3491 38.4365 32.7173 39.6054 31.8046C40.7743 30.8918 41.6682 29.6281 42.1495 28.2239C42.6996 26.8197 42.7683 25.2751 42.562 23.8008C42.287 22.3264 41.6682 20.9222 40.7055 19.7989C39.4679 18.3245 37.7489 17.4118 35.8924 17.0607C35.4798 16.9905 35.136 16.7799 34.861 16.4991C34.5859 16.2182 34.4484 15.797 34.5172 15.3757C34.5172 14.9545 34.4484 14.463 34.4484 14.0417C34.1734 11.3036 32.9357 8.77609 31.0105 6.81025C29.0852 4.91461 26.5411 3.72106 23.8595 3.58065C21.1779 3.37002 18.4963 4.14232 16.296 5.82732C14.0957 7.44213 12.583 9.82922 11.8954 12.4972C11.8266 12.9184 11.6203 13.2695 11.3453 13.5503C11.0703 13.8311 10.7265 14.0417 10.3139 14.112C8.04484 14.814 6.11958 16.2884 4.81315 18.3245C3.50673 20.3605 3.09417 22.6072 3.43797 24.9943C3.78176 27.3814 4.95067 29.5579 6.73842 31.1727C8.52616 32.7875 10.7952 33.63 13.133 33.63C16.7085 33.63 20.2152 33.63 23.7907 33.63ZM21.3842 24.5731V20.4307C21.3842 17.5522 21.3842 14.7438 21.3842 11.8653C21.3842 11.444 21.5217 11.0228 21.7967 10.7419C22.0717 10.3909 22.4155 10.1803 22.8281 10.1803C23.2407 10.1101 23.6532 10.2505 23.997 10.4611C24.3408 10.6717 24.5471 11.0228 24.6846 11.444C24.7534 11.6547 24.7534 11.9355 24.7534 12.1461V24.5028C24.8909 24.3624 25.0284 24.2922 25.1659 24.1518C26.2661 23.0285 27.3662 21.9051 28.4664 20.7818C28.6039 20.5712 28.8102 20.4307 29.0164 20.3605C29.2227 20.2201 29.429 20.2201 29.704 20.1499C29.9103 20.1499 30.1854 20.1499 30.3916 20.2903C30.5979 20.3605 30.8042 20.5009 30.9417 20.6414C31.0792 20.7818 31.2167 20.9924 31.2855 21.203C31.3543 21.4137 31.423 21.6945 31.3543 21.9051C31.3543 22.1158 31.2855 22.3966 31.148 22.6072C31.0105 22.8178 30.8729 23.0285 30.7354 23.1689C28.6039 25.3454 26.5411 27.4516 24.4096 29.6281C24.272 29.8387 24.0658 29.9791 23.8595 30.1195C23.5157 30.26 23.2407 30.26 23.0344 30.26C22.7593 30.26 22.5531 30.1898 22.278 30.1195C22.0717 29.9791 21.8655 29.8387 21.728 29.6281L15.4021 23.1689C15.1958 23.0285 15.0583 22.8178 14.9895 22.6072C14.9208 22.3966 14.852 22.186 14.852 21.9051C14.852 21.6945 14.852 21.4137 14.9895 21.203C15.0583 20.9924 15.1958 20.7818 15.3333 20.6414C15.4709 20.5009 15.6771 20.3605 15.8834 20.2903C16.0897 20.2201 16.296 20.1499 16.571 20.1499C16.7773 20.1499 17.0523 20.2201 17.2586 20.3605C17.4649 20.5009 17.6712 20.6414 17.8087 20.7818C17.9462 20.9222 18.0837 21.1328 18.29 21.2732C19.1839 22.3264 20.2152 23.3795 21.3842 24.5731Z" fill="white"/>
</svg>
