<svg width="13" height="14" viewBox="0 0 13 14" fill="none" xmlns="http://www.w3.org/2000/svg">
<path d="M10.9271 8.74563C10.4721 8.2374 9.8807 8.2374 9.40678 8.74563C9.0504 9.12782 8.69781 9.50594 8.34142 9.88813C8.24285 9.99384 8.16323 10.0142 8.0457 9.95319C7.8296 9.80682 7.57179 9.7011 7.35568 9.55067C6.32823 8.85134 5.46002 7.96092 4.69039 6.94853C4.31505 6.4403 3.98141 5.91174 3.74256 5.29779C3.70464 5.17175 3.70464 5.1067 3.80322 5.00099C4.17856 4.63913 4.51219 4.261 4.86858 3.87882C5.36145 3.35026 5.36145 2.73631 4.86858 2.20775C4.57285 1.89062 4.29609 1.59381 4.01932 1.297C3.7236 0.979868 3.44683 0.662733 3.15111 0.365926C2.69615 -0.121975 2.10471 -0.121975 1.63079 0.365926C1.27441 0.748115 0.921819 1.12624 0.565435 1.50843C0.228008 1.87029 0.0536077 2.29314 0.0119032 2.77697C-0.0487579 3.56168 0.129434 4.32199 0.387243 5.06198C0.921819 6.607 1.72937 7.94059 2.69615 9.18881C4.01932 10.8843 5.59651 12.2179 7.4353 13.1693C8.2656 13.5921 9.11485 13.9296 10.021 13.9946C10.6731 14.0353 11.2266 13.8483 11.6778 13.3156C11.9735 12.9334 12.3299 12.6163 12.6446 12.2585C13.1185 11.73 13.1185 11.0957 12.6446 10.5875C12.0721 9.97352 11.4996 9.35957 10.9271 8.74563Z" fill="#6480D0"/>
</svg>
