<svg width="17" height="19" viewBox="0 0 17 19" fill="none" xmlns="http://www.w3.org/2000/svg">
<path d="M10.3872 0H6.60847C2.95052 0 0 2.9678 0 6.65152V9.50217C0 12.0751 1.46663 14.4138 3.77874 15.5072V18.6919C3.77874 18.8525 3.9254 19 4.11089 19C4.18422 19 4.27049 18.9696 4.33088 18.9132L7.06141 16.1494H10.3872C14.0495 16.1494 17 13.1815 17 9.49783V6.64718C17 2.9678 14.0495 0 10.3872 0ZM12.8719 12.4656L11.9272 13.4158C10.9092 14.4095 8.2951 13.2683 5.983 10.9036C3.6709 8.53894 2.64425 5.86184 3.61913 4.86823L4.56382 3.91802C4.94342 3.56657 5.5387 3.58392 5.91398 3.94839L7.2814 5.38022C7.6308 5.76205 7.6308 6.33044 7.2512 6.71226C7.14768 6.8164 7.03121 6.8728 6.9018 6.93355C6.42299 7.08107 6.17711 7.54533 6.29358 8.03129C6.52652 9.08564 7.84649 10.4003 8.85156 10.6607C9.31743 10.7778 9.79624 10.5131 9.95585 10.0619C10.1155 9.59329 10.6374 9.33295 11.1335 9.49349C11.2801 9.53688 11.3966 9.64101 11.5131 9.72779L12.8805 11.1596C13.2213 11.5024 13.2213 12.0881 12.8719 12.4656ZM9.34331 4.51678C9.23979 4.51678 9.15351 4.51679 9.06724 4.54716C8.90764 4.57753 8.73509 4.44302 8.71784 4.25645C8.70058 4.06988 8.82136 3.92236 8.99391 3.905C9.11038 3.87463 9.22685 3.87463 9.34331 3.87463C11.086 3.87463 12.4836 5.30646 12.5095 7.03334C12.5095 7.15049 12.5095 7.26764 12.4793 7.38479C12.4491 7.54533 12.3197 7.69285 12.1299 7.66248C11.9401 7.63211 11.8236 7.50194 11.8538 7.31103C11.8538 7.2069 11.884 7.12012 11.884 7.03334C11.8711 5.65791 10.7366 4.51678 9.34331 4.51678ZM11.2327 7.05937C11.2025 7.21991 11.0731 7.36744 10.8833 7.33706C10.7366 7.30669 10.6072 7.18954 10.6072 7.05937C10.6072 6.37383 10.0421 5.8011 9.35625 5.8011C9.19665 5.83147 9.02411 5.68395 9.00685 5.51039C8.97666 5.34985 9.12332 5.1763 9.28292 5.15894H9.32606C10.4174 5.15894 11.2327 6.00502 11.2327 7.05937ZM13.644 8.066C13.6138 8.22654 13.4542 8.34369 13.2946 8.33067C13.135 8.31765 13.0185 8.13976 13.0315 7.97922C13.0315 7.94885 13.0315 7.94885 13.0315 7.93583C13.1048 7.65814 13.135 7.36744 13.135 7.05937C13.135 4.96803 11.4354 3.25851 9.35625 3.25851C9.25273 3.25851 9.16645 3.25851 9.08018 3.25851C8.92058 3.28888 8.74803 3.14136 8.74803 2.9678C8.71784 2.80726 8.8645 2.63371 9.02411 2.63371C9.14057 2.63371 9.25704 2.60333 9.35625 2.60333C11.7848 2.60333 13.7734 4.59055 13.7734 7.04636C13.7605 7.38045 13.7173 7.74492 13.644 8.066Z" fill="white"/>
</svg>
