<svg width="18" height="18" viewBox="0 0 18 18" fill="none" xmlns="http://www.w3.org/2000/svg">
<path d="M8.99995 0.200195C4.14178 0.200195 0.199951 4.14202 0.199951 9.0002C0.199951 10.9455 0.82962 12.7373 1.89442 14.1962L0.773308 17.5135L4.26976 16.4231C5.6366 17.2934 7.2594 17.8002 8.99995 17.8002C13.8581 17.8002 17.8 13.8584 17.8 9.0002C17.8 4.14202 13.8581 0.200195 8.99995 0.200195ZM13.0288 13.7201C11.4316 14.3601 9.52724 13.7406 7.4437 12.1588C5.36016 10.5769 3.9882 8.35005 3.89605 6.69653C3.80391 5.04301 5.15027 4.20857 5.88232 4.21369C6.61438 4.21881 7.4181 6.55831 7.42834 6.91666C7.43858 7.28013 6.53247 7.92515 6.49664 8.23231C6.4608 8.53946 7.73038 10.0548 8.2679 10.4643C8.8003 10.8687 9.90094 11.6469 10.4692 11.5752C11.0323 11.4984 11.406 10.367 11.7643 10.2954C12.1227 10.2237 14.0783 11.1964 14.2728 11.4472C14.4673 11.7032 14.4468 13.157 13.0288 13.7201Z" fill="white"/>
</svg>
