<svg width="250" height="69" viewBox="0 0 250 69" fill="none" xmlns="http://www.w3.org/2000/svg">
<path d="M78.152 22.056C78.152 20.0933 78.4933 18.3333 79.176 16.776C79.88 15.1973 80.7973 13.9387 81.928 13C83.08 12.0613 84.36 11.3573 85.768 10.888C87.176 10.3973 88.648 10.152 90.184 10.152C92.5307 10.152 94.664 10.632 96.584 11.592V16.168C95.0693 14.9947 93.2027 14.408 90.984 14.408C88.808 14.408 86.9413 15.0587 85.384 16.36C83.848 17.64 83.08 19.5387 83.08 22.056C83.08 23.2507 83.304 24.3173 83.752 25.256C84.2 26.1733 84.7973 26.9093 85.544 27.464C86.312 28.0187 87.1547 28.4453 88.072 28.744C89.0107 29.0213 89.9813 29.16 90.984 29.16C93.4587 29.16 95.3787 28.5413 96.744 27.304V32.008C94.76 32.968 92.5947 33.448 90.248 33.448C88.712 33.448 87.24 33.2133 85.832 32.744C84.424 32.2747 83.1333 31.592 81.96 30.696C80.808 29.8 79.88 28.6053 79.176 27.112C78.4933 25.6187 78.152 23.9333 78.152 22.056ZM101.207 31.304C99.5641 29.8747 98.7428 27.88 98.7428 25.32C98.7428 22.76 99.5641 20.7653 101.207 19.336C102.849 17.9067 104.855 17.192 107.223 17.192C109.612 17.192 111.617 17.9067 113.239 19.336C114.881 20.7653 115.703 22.76 115.703 25.32C115.703 27.88 114.881 29.8747 113.239 31.304C111.617 32.7333 109.612 33.448 107.223 33.448C104.855 33.448 102.849 32.7333 101.207 31.304ZM110.135 28.328C110.839 27.5387 111.191 26.536 111.191 25.32C111.191 24.104 110.839 23.112 110.135 22.344C109.431 21.5547 108.46 21.16 107.223 21.16C105.985 21.16 105.015 21.5547 104.311 22.344C103.628 23.112 103.287 24.104 103.287 25.32C103.287 26.536 103.628 27.5387 104.311 28.328C105.015 29.096 105.985 29.48 107.223 29.48C108.46 29.48 109.431 29.096 110.135 28.328ZM117.935 21.928C117.935 20.2853 118.543 19.0907 119.759 18.344C120.975 17.576 122.5 17.192 124.335 17.192C126.319 17.192 128.207 17.6293 129.999 18.504V22.152C129.337 21.704 128.495 21.3307 127.471 21.032C126.468 20.7333 125.519 20.584 124.623 20.584C123.193 20.584 122.479 20.9893 122.479 21.8C122.479 22.2693 122.777 22.6533 123.375 22.952C123.972 23.2507 124.697 23.5173 125.551 23.752C126.404 23.9653 127.247 24.232 128.079 24.552C128.932 24.872 129.657 25.384 130.255 26.088C130.852 26.792 131.151 27.6667 131.151 28.712C131.151 29.864 130.809 30.8027 130.127 31.528C129.465 32.2533 128.633 32.7547 127.631 33.032C126.649 33.3093 125.497 33.448 124.175 33.448C121.721 33.448 119.684 32.968 118.063 32.008V28.328C119.727 29.416 121.679 29.96 123.919 29.96C125.711 29.96 126.607 29.576 126.607 28.808C126.607 28.36 126.308 27.9867 125.711 27.688C125.113 27.3893 124.388 27.1227 123.535 26.888C122.703 26.6533 121.86 26.376 121.007 26.056C120.153 25.7147 119.428 25.2027 118.831 24.52C118.233 23.816 117.935 22.952 117.935 21.928ZM138.305 33H133.857V17.64H137.793V19.432C138.283 18.856 138.955 18.344 139.809 17.896C140.662 17.4267 141.622 17.192 142.689 17.192C144.801 17.192 146.369 17.9493 147.393 19.464C148.95 17.9493 150.657 17.192 152.513 17.192C154.475 17.192 155.915 17.8107 156.833 19.048C157.771 20.264 158.241 21.672 158.241 23.272V33H153.825V23.56C153.825 22.7707 153.601 22.152 153.153 21.704C152.726 21.256 152.15 21.032 151.425 21.032C150.294 21.032 149.281 21.544 148.385 22.568C148.406 22.7173 148.417 22.952 148.417 23.272V33H144.001V23.56C144.001 22.7707 143.777 22.152 143.329 21.704C142.902 21.256 142.326 21.032 141.601 21.032C140.342 21.032 139.243 21.6507 138.305 22.888V33ZM163.457 31.304C161.814 29.8747 160.993 27.88 160.993 25.32C160.993 22.76 161.814 20.7653 163.457 19.336C165.099 17.9067 167.105 17.192 169.473 17.192C171.862 17.192 173.867 17.9067 175.489 19.336C177.131 20.7653 177.953 22.76 177.953 25.32C177.953 27.88 177.131 29.8747 175.489 31.304C173.867 32.7333 171.862 33.448 169.473 33.448C167.105 33.448 165.099 32.7333 163.457 31.304ZM172.385 28.328C173.089 27.5387 173.441 26.536 173.441 25.32C173.441 24.104 173.089 23.112 172.385 22.344C171.681 21.5547 170.71 21.16 169.473 21.16C168.235 21.16 167.265 21.5547 166.561 22.344C165.878 23.112 165.537 24.104 165.537 25.32C165.537 26.536 165.878 27.5387 166.561 28.328C167.265 29.096 168.235 29.48 169.473 29.48C170.71 29.48 171.681 29.096 172.385 28.328ZM184.793 19.88C186.051 18.088 187.907 17.192 190.361 17.192C192.686 17.192 194.51 17.992 195.833 19.592C197.177 21.1707 197.849 23.08 197.849 25.32C197.849 27.56 197.177 29.48 195.833 31.08C194.51 32.6587 192.686 33.448 190.361 33.448C188.249 33.448 186.563 32.7547 185.305 31.368V40.04H180.857V17.64H184.793V19.88ZM192.217 28.456C192.942 27.6027 193.305 26.5573 193.305 25.32C193.305 24.0827 192.942 23.048 192.217 22.216C191.491 21.3627 190.51 20.936 189.273 20.936C188.355 20.936 187.534 21.1813 186.809 21.672C186.105 22.1627 185.593 22.7707 185.273 23.496V27.144C185.593 27.8693 186.105 28.4773 186.809 28.968C187.534 29.4587 188.355 29.704 189.273 29.704C190.51 29.704 191.491 29.288 192.217 28.456ZM202.363 31.304C200.72 29.8747 199.899 27.88 199.899 25.32C199.899 22.76 200.72 20.7653 202.363 19.336C204.006 17.9067 206.011 17.192 208.379 17.192C210.768 17.192 212.774 17.9067 214.395 19.336C216.038 20.7653 216.859 22.76 216.859 25.32C216.859 27.88 216.038 29.8747 214.395 31.304C212.774 32.7333 210.768 33.448 208.379 33.448C206.011 33.448 204.006 32.7333 202.363 31.304ZM211.291 28.328C211.995 27.5387 212.347 26.536 212.347 25.32C212.347 24.104 211.995 23.112 211.291 22.344C210.587 21.5547 209.616 21.16 208.379 21.16C207.142 21.16 206.171 21.5547 205.467 22.344C204.784 23.112 204.443 24.104 204.443 25.32C204.443 26.536 204.784 27.5387 205.467 28.328C206.171 29.096 207.142 29.48 208.379 29.48C209.616 29.48 210.587 29.096 211.291 28.328ZM219.827 9.64H224.275V33H219.827V9.64ZM232.587 33H228.139V17.64H232.587V33ZM232.971 12.552C232.971 13.384 232.725 14.0133 232.235 14.44C231.744 14.8667 231.115 15.08 230.347 15.08C229.6 15.08 228.981 14.8667 228.491 14.44C228 14.0133 227.755 13.384 227.755 12.552C227.755 11.7413 228 11.1227 228.491 10.696C228.981 10.2693 229.6 10.056 230.347 10.056C231.093 10.056 231.712 10.2693 232.203 10.696C232.715 11.1227 232.971 11.7413 232.971 12.552ZM235.747 21.928C235.747 20.2853 236.355 19.0907 237.571 18.344C238.787 17.576 240.313 17.192 242.147 17.192C244.131 17.192 246.019 17.6293 247.811 18.504V22.152C247.15 21.704 246.307 21.3307 245.283 21.032C244.281 20.7333 243.331 20.584 242.435 20.584C241.006 20.584 240.291 20.9893 240.291 21.8C240.291 22.2693 240.59 22.6533 241.187 22.952C241.785 23.2507 242.51 23.5173 243.363 23.752C244.217 23.9653 245.059 24.232 245.891 24.552C246.745 24.872 247.47 25.384 248.067 26.088C248.665 26.792 248.963 27.6667 248.963 28.712C248.963 29.864 248.622 30.8027 247.939 31.528C247.278 32.2533 246.446 32.7547 245.443 33.032C244.462 33.3093 243.31 33.448 241.987 33.448C239.534 33.448 237.497 32.968 235.875 32.008V28.328C237.539 29.416 239.491 29.96 241.731 29.96C243.523 29.96 244.419 29.576 244.419 28.808C244.419 28.36 244.121 27.9867 243.523 27.688C242.926 27.3893 242.201 27.1227 241.347 26.888C240.515 26.6533 239.673 26.376 238.819 26.056C237.966 25.7147 237.241 25.2027 236.643 24.52C236.046 23.816 235.747 22.952 235.747 21.928Z" fill="#1C1C1C"/>
<path d="M79.4 40.6H95.208V44.92H84.2V50.136H94.28V54.456H84.2V63H79.4V40.6ZM102.649 63H98.2013V47.64H102.649V63ZM103.033 42.552C103.033 43.384 102.788 44.0133 102.297 44.44C101.807 44.8667 101.177 45.08 100.409 45.08C99.6626 45.08 99.0439 44.8667 98.5533 44.44C98.0626 44.0133 97.8173 43.384 97.8173 42.552C97.8173 41.7413 98.0626 41.1227 98.5533 40.696C99.0439 40.2693 99.6626 40.056 100.409 40.056C101.156 40.056 101.775 40.2693 102.265 40.696C102.777 41.1227 103.033 41.7413 103.033 42.552ZM110.418 49.592C111.804 47.992 113.511 47.192 115.538 47.192C117.5 47.192 119.026 47.7893 120.114 48.984C121.223 50.1573 121.778 51.6613 121.778 53.496V63H117.33V54.072C117.33 53.0693 117.052 52.312 116.498 51.8C115.964 51.288 115.25 51.032 114.354 51.032C112.967 51.032 111.826 51.6827 110.93 52.984V63H106.482V47.64H110.418V49.592ZM139.085 59.032C139.085 59.7147 139.447 60.056 140.173 60.056C140.471 60.056 140.749 60.0133 141.005 59.928V62.84C140.194 63.1387 139.373 63.288 138.541 63.288C136.919 63.288 135.789 62.712 135.149 61.56C133.549 62.8187 131.703 63.448 129.613 63.448C128.098 63.448 126.818 63.032 125.773 62.2C124.749 61.3467 124.237 60.1947 124.237 58.744C124.237 57.528 124.599 56.5147 125.325 55.704C126.05 54.8933 126.893 54.3493 127.853 54.072C128.813 53.7733 129.858 53.624 130.989 53.624C132.247 53.624 133.463 53.7627 134.637 54.04V53.496C134.637 52.7067 134.327 52.0773 133.709 51.608C133.09 51.1387 132.194 50.904 131.021 50.904C129.314 50.904 127.501 51.288 125.581 52.056V48.216C127.629 47.5333 129.613 47.192 131.533 47.192C136.567 47.192 139.085 49.5067 139.085 54.136V59.032ZM132.013 56.28C131.095 56.28 130.327 56.4507 129.709 56.792C129.09 57.1333 128.781 57.6667 128.781 58.392C128.781 58.9467 129.005 59.4053 129.453 59.768C129.922 60.1093 130.498 60.28 131.181 60.28C132.525 60.28 133.677 59.864 134.637 59.032V56.632C133.655 56.3973 132.781 56.28 132.013 56.28ZM147.043 49.592C148.429 47.992 150.136 47.192 152.163 47.192C154.125 47.192 155.651 47.7893 156.739 48.984C157.848 50.1573 158.403 51.6613 158.403 53.496V63H153.955V54.072C153.955 53.0693 153.677 52.312 153.123 51.8C152.589 51.288 151.875 51.032 150.979 51.032C149.592 51.032 148.451 51.6827 147.555 52.984V63H143.107V47.64H147.043V49.592ZM161.118 55.544C161.118 54.136 161.363 52.8773 161.854 51.768C162.366 50.6587 163.038 49.784 163.87 49.144C164.702 48.4827 165.619 47.992 166.622 47.672C167.624 47.3307 168.68 47.16 169.79 47.16C171.56 47.16 173.139 47.5333 174.526 48.28V52.184C173.331 51.416 171.966 51.032 170.43 51.032C169.086 51.032 167.955 51.384 167.038 52.088C166.12 52.792 165.662 53.8693 165.662 55.32C165.662 56.7067 166.12 57.7733 167.038 58.52C167.955 59.2453 169.064 59.608 170.366 59.608C172.008 59.608 173.448 59.2347 174.686 58.488V62.424C173.086 63.1067 171.358 63.448 169.502 63.448C167.198 63.448 165.224 62.776 163.582 61.432C161.939 60.0667 161.118 58.104 161.118 55.544ZM176.805 55.32C176.805 53.9333 177.051 52.7067 177.541 51.64C178.032 50.552 178.672 49.6987 179.461 49.08C180.272 48.4613 181.115 47.992 181.989 47.672C182.885 47.352 183.792 47.192 184.709 47.192C186.245 47.192 187.568 47.48 188.677 48.056C189.808 48.632 190.64 49.3787 191.173 50.296C191.707 51.192 192.069 52.216 192.261 53.368C192.475 54.4987 192.421 55.6293 192.101 56.76H181.285C181.52 57.8267 182.139 58.6267 183.141 59.16C184.144 59.672 185.328 59.928 186.693 59.928C188.379 59.928 189.925 59.6187 191.333 59V62.488C189.819 63.128 187.941 63.448 185.701 63.448C183.141 63.448 181.019 62.7333 179.333 61.304C177.648 59.8747 176.805 57.88 176.805 55.32ZM188.101 53.88C188.208 53.176 188.005 52.4507 187.493 51.704C186.981 50.9573 186.107 50.584 184.869 50.584C183.888 50.584 183.045 50.8827 182.341 51.48C181.637 52.056 181.275 52.856 181.253 53.88H188.101Z" fill="#4A68BB"/>
<g clip-path="url(#clip0_311_2679)">
<path d="M40.4789 0H15.9576L22.7459 10.8684H40.4789H58.2118L65.0001 0H40.4789Z" fill="#6481D0"/>
<path d="M54.7028 21.7998H30.1816H29.2208L18.5894 43.2207H30.1816L35.6748 32.6682H47.9145L54.7028 21.7998Z" fill="#4A68BB"/>
<path d="M26.1086 54.1313H22.6414L11.7175 32.6682L22.7458 10.8682H10.5061L0 32.6682L15.9576 64.9997H26.1086H43.8416L50.6298 54.1313H26.1086Z" fill="#4A68BB"/>
</g>
<defs>
<clipPath id="clip0_311_2679">
<rect width="65" height="65" fill="white"/>
</clipPath>
</defs>
</svg>
